<svg xmlns="http://www.w3.org/2000/svg" width="192" height="192" viewBox="0 0 192 192"><path d="M0 0h192v192H0z"/><path fill="#FFF" d="M106.6 134.8s3.9-.6 3.9-3.6V123s.3-5.1 1.5-7.6c1.2-2.4 3.3-12.3 3.3-21.3V67.9s-1.5-6.3-4.4-6.3c-2.9 0-4.4 3-4.4 6.6v15.4c0-1.5-2.4-5.1-6-5.1s-4.6 3-4.6 5.1c0-2.4-2.1-4.8-5.1-4.8S86 82.1 86 83.9V63.4c0-1.8-.9-4.5-4.8-4.5s-4.5 3.6-4.5 4.5v34.7c-2.3-2.3-10.6-9.7-15.1-9.7s-4.2 2.4-4.2 3.6 0 2.7 2.1 4.7 6 6.5 7.3 8.9 3 8.5 7.3 11.2c3.6 2.4 6 3.3 6.6 7.9.6 4.5.9 6.9 1.2 8.2.3 1.2 1.8 1.8 4.5 1.8 2.7.1 20.2.1 20.2.1z"/></svg>
