<svg xmlns="http://www.w3.org/2000/svg" width="512" height="512" viewBox="0 0 512 512"><path fill="#000" d="M0 0h512v512H0z"/><path fill="#fff" d="M326 291.3c-.1-.4-.2-.7-.3-1-.2-1.3-.5-2.6-.8-3.8-3-11.7-11.3-17.4-11.8-21.1 0 0-1.9 6.2-15.7 13.5 5.5-7.1 8.7-15.7 8.7-24.9v-1.5-1.5c0-.8 0-1.6-.1-2.4 6.9-6.5 12.9-20.8 14.4-32.1 1.2-9.1-.8-15.3-4-17.2-.5-1-1.1-1.9-1.8-2.6-.6-7.4-2.4-11.5-2.4-11.5-13.9 3.3-22.5 8.6-27.8 14.1-1-.4-2-.7-3-1-22.9-7.6-41.6-5.9-55.9-1.4-5.4-4.6-13.3-8.9-25.2-11.7 0 0-1.6 3.6-2.3 10.2-.1 0-.2.1-.3.1-1.3.4-2.4 1.4-3.4 2.9-.3.1-.7.2-1 .3-3.5 1.7-5.6 8.1-4.4 17.4 1.6 12.8 9.1 29.5 17.4 34.4v3.3c0 9.8 3.6 18.9 9.7 26.2-16.2-7.8-18.3-14.8-18.3-14.8-.5 3.7-8.7 9.4-11.8 21.1-1.4 5.5-2.2 12.3-1.9 18.6-.3 8.4.9 16.8 4.6 21.1.6-4.9 8.6-8.5 19.7-1.4 0 0 1.4-8.6 10.3-13.6 5.7-3.2 11.9 5.8 14.8 7 .2.1.3.3.4.4-2.6 2-3 5.3.8 7.6 5 2.1 7.9-.9 8.7-1.7 3.8 1.5 8 2.4 12.4 2.4 3.6 0 7.1-.6 10.4-1.7.5.6 4.8 2.8 8.2.9 4.2-2.3 2.6-5.1 1.9-6.4.9-.7 1.8-1.5 2.6-2.3 3.5-2.5 9.6-9 14.6-6.2 8.8 5 10.3 13.6 10.3 13.6 11-7.1 19-3.4 19.7 1.4 5.7-6.6 5.5-23.3 2.6-34.7zm-48.7-80.4c-6.4-2.7-13.6-4.2-21.1-4.2-7.5 0-14.6 1.5-21 4.1-.8-2.5-2.2-5.4-4.4-8.4 18.6-4.8 35.7-2.1 49.2 2.5-1.2 2.2-2.1 4.2-2.7 6z"/></svg>