<svg xmlns="http://www.w3.org/2000/svg" width="320" height="200" viewBox="0 0 320 200"><path fill="#F3F3F3" d="M0 0h320v200.1H0z"/><path fill="#A3E0F5" d="M28.8 18.6h263c5.6 0 10.2 4.7 10.2 10.2v142.5c0 5.6-4.6 10.2-10.2 10.2h-263c-5.6 0-10.2-4.7-10.2-10.2V28.9c0-5.6 4.4-10.3 10.2-10.3z"/><path fill="#EFC75E" d="M18.6 28.9v49.8c2.3.2 4.6.5 7 .5 29.5 0 53.4-24 53.4-53.6 0-2.3-.2-4.7-.5-7H28.8c-5.8 0-10.2 4.7-10.2 10.3z"/><path fill="#3DB39E" d="M35.7 132.6c-5.8 0-11.6.5-17 1.2v37.5c0 5.6 4.6 10.2 10.2 10.2h105.8c.5-2.1.7-4 .7-6.1 0-23.7-60.2-42.8-99.7-42.8z"/><path fill="#4BC2AD" d="M226 111.7c-63.7 0-115.5 31.2-116.2 69.8h182c5.6 0 10.2-4.7 10.2-10.2v-54.2c-13.6-3.3-60.4-5.4-76-5.4z"/></svg>