<svg xmlns="http://www.w3.org/2000/svg" width="512" height="512" viewBox="0 0 512 512"><path fill="#6A4FA0" d="M370.4 390.9c0 36-16.9 68-43.2 88.9 2.5 4.3 8 14.4-6.6 22.4-12.1 6.6-27.4-1-29-3.1-11.5 3.8-23.8 5.9-36.7 5.9-15.4 0-30.2-3-43.6-8.4-2.7 2.9-12.8 13.4-30.6 6.1-13.6-7.9-12.1-19.7-2.9-26.7-23.6-20.9-38.5-51.2-38.5-85 0-63 51.7-114 115.5-114s115.6 50.9 115.6 113.9z"/><path fill="#6A4FA0" d="M136 350.2c-75.8-31-84.9-61.3-84.9-61.3-1.7 13-30.7 33.1-41.4 74.4-10.3 40-10.8 98.7 9.4 122.6 2.2-17.1 30.4-30 69.2-5 0 0 5-30.4 36.1-48 21.2-12 44.1 24 53.5 25 0 0-29.9-52.3-19.9-99.7-8.7-3.3-22-8-22-8"/><path fill="#B9A9DB" stroke="#231F20" stroke-miterlimit="10" d="M136 367.1c-75.8-31-84.9-61.3-84.9-61.3-1.7 13-30.7 33.1-41.4 74.4-10.3 40-10.8 98.7 9.4 122.6 2.2-17.1 30.4-30 69.2-5 0 0 5-30.4 36.1-48 21.2-12 44.1 24 53.5 25 0 0-29.9-52.3-19.9-99.7-8.7-3.3-22-8-22-8"/><path fill="#6A4FA0" d="M372 350.2c75.8-31 84.9-61.3 84.9-61.3 1.7 13 30.7 33.1 41.4 74.4 10.3 40 10.8 98.7-9.4 122.6-2.2-17.1-30.4-30-69.2-5 0 0-5-30.4-36.1-48-21.2-12-44.1 24-53.5 25 0 0 29.9-52.3 19.9-99.7 8.7-3.3 22-8 22-8"/><path fill="#B9A9DB" stroke="#231F20" stroke-miterlimit="10" d="M376 367.1c75.8-31 84.9-61.3 84.9-61.3 1.7 13 30.7 33.1 41.4 74.4 10.3 40 10.8 98.7-9.4 122.6-2.2-17.1-30.4-30-69.2-5 0 0-5-30.4-36.1-48-21.2-12-48.1 24-57.5 25 0 0 33.9-52.3 23.9-99.7 8.7-3.3 22-8 22-8"/><ellipse fill="#3A1F71" stroke="#231F20" stroke-miterlimit="10" cx="256.7" cy="248.9" rx="175.5" ry="155.5"/><g fill="#FFF" stroke="#231F20" stroke-miterlimit="10"><path d="M177.8 363.2c14.9 44.8 17.9 48.8 17.9 57.8s3.2-31.2 20.1-35.6-38-22.2-38-22.2zM334.4 363.2C319.5 408 316.5 412 316.5 421s-3.2-31.2-20.1-35.6 38-22.2 38-22.2z"/></g><ellipse fill="#6A4FA0" cx="256.7" cy="238.1" rx="175.5" ry="155.5"/><g fill="#3A1F71" stroke="#231F20" stroke-miterlimit="10"><ellipse cx="280.9" cy="334" rx="8.7" ry="12"/><ellipse cx="229.8" cy="334" rx="8.7" ry="12"/></g><g stroke="#231F20" stroke-miterlimit="10"><path fill="#B9A9DB" d="M60.1 6.9s-33 76 27 190c51 21 100-70 100-70s9-88-127-120z"/><path fill="#3A1F71" d="M187.1 126.9s9-88-127-120c0 0 115.6 75.7 109.7 146.5 10.2-13.8 17.4-26.6 17.4-26.6"/></g><g stroke="#231F20" stroke-miterlimit="10"><path fill="#B9A9DB" d="M453.6 6.9s33 76-27 190c-51 21-100-70-100-70s-9-88 127-120z"/><path fill="#3A1F71" d="M326.6 126.9s-9-88 127-120c0 0-115.6 75.7-109.7 146.5-10.2-13.8-17.4-26.6-17.4-26.6"/></g><g><path fill="#D38844" d="M105.4 77.1c35.2 49.7 60 144.8 18.1 159.6-42 14.8-86-73.9-91.9-134-3.2-33.5 5.9-55.1 19.4-59.8 13.4-4.6 34.8 6.4 54.4 34.2z"/><path fill="#FFCB95" d="M86.7 82.6c34 45.7 60.1 137.5 22.2 156.6-38 19.1-81.4-64.3-88.9-123.4-4.2-32.8 3.5-55.3 15.7-61.3 12.1-6.1 32.1 2.7 51 28.1z"/><path fill="#D38844" d="M400.5 77.1c-35.2 49.7-60 144.8-18.1 159.6 42 14.8 86-73.9 91.9-134 3.3-33.4-5.9-55.1-19.4-59.7-13.5-4.7-34.8 6.3-54.4 34.1z"/><path fill="#FFCB95" d="M418 83.8c-33.3 45.3-59.3 136.3-22.6 155.3 36.8 19 79.5-63.8 87.1-122.3 4.2-32.6-3-54.9-14.8-60.8-11.7-6-31.1 2.6-49.7 27.8z"/><path fill="#D38844" d="M41.2 110.5c30.3-28 180-156 421.5 0 3.4 4.9 0 30.9-24.9 15-37.3-23.9-204.7-135.6-381.6-3-17.2 8.9-18.1-9.1-15-12z"/><path fill="#FFCB95" d="M41.2 109.3c30.3-26 179.9-152.4 421.5-.4 3.4 4.6-2.2 31.9-24.9 14C398.6 92 229.8-11 56.2 120.5c-17.2 8.2-18.1-8.5-15-11.2z"/></g><g><path fill="#FFF" stroke="#231F20" stroke-miterlimit="10" d="M231.1 237c0 26.5-17.3 41.5-38.6 41.5S154 263.4 154 237s17.3-47.9 38.6-47.9 38.5 21.4 38.5 47.9zM357.5 237c0 26.5-17.3 41.5-38.6 41.5s-38.6-15-38.6-41.5 17.3-47.9 38.6-47.9c21.3-.1 38.6 21.4 38.6 47.9z"/><ellipse fill="#231F20" stroke="#FFF" stroke-miterlimit="10" cx="194.3" cy="241.9" rx="16.4" ry="25.4"/><ellipse fill="#231F20" stroke="#FFF" stroke-miterlimit="10" cx="317" cy="241.9" rx="16.4" ry="25.4"/><ellipse fill="#FFF" cx="308.8" cy="225.2" rx="8.2" ry="8.6"/><ellipse fill="#FFF" cx="186" cy="225.2" rx="8.2" ry="8.6"/></g></svg>