<svg xmlns="http://www.w3.org/2000/svg" width="32" height="32" viewBox="0 0 32 32"><path fill="#ffffff" d="M15.6 12.9l12-1.9v16.2c0 1.3-1 2.4-2.6 2.8-1.7.4-3.4-.3-3.7-1.6-.3-1.3.8-2.7 2.5-3.2.8-.2 1.5-.2 2.2.1v-9.8l-8.8 1.6v12.1c0 1.1-1 2.3-2.5 2.6-1.7.4-3.5-.4-3.7-1.6-.3-1.3.8-2.7 2.5-3.1.8-.2 1.5-.2 2.1.1V12.9zm-4.5 5.9v-15s3.3-.2 6.5 4.8c0 0 0-2.6-2.5-4.5C10.4.8 10.4 0 10.4 0c-.9.1-1 .8-1 .8v15.8c-.7-.2-1.5-.3-2.4-.1-1.8.5-3 2-2.7 3.5.2 1.3 2.2 2.2 4 1.7 1.7-.4 2.8-1.6 2.8-2.9zm8.7-9.7c.6-.1 1-.6 1-1V2.9s1.1-.1 2.3 1.7c0 0 0-.9-.9-1.6-1.7-1.2-1.7-1.4-1.7-1.4-.3 0-.4.3-.4.3v5.5c-.2-.1-.5-.1-.8 0-.7.2-1.1.7-.9 1.2.1.4.8.7 1.4.5zm5.7 0c.4-.1.7-.4.7-.7V4.8s.8 0 1.6 1.2c0 0 0-.6-.6-1.1-1.2-.9-1.2-1-1.2-1-.2 0-.2.2-.2.2v3.8c-.2-.1-.4-.1-.6 0-.5.1-.7.5-.7.8.1.3.5.5 1 .4z"/></svg>
